<?xml version="1.0" encoding="iso-8859-1"?>
<!-- Uploaded to: SVG Repo, www.svgrepo.com, Generator: SVG Repo Mixer Tools -->
<svg height="800px" width="800px" version="1.1" id="Layer_1" xmlns="http://www.w3.org/2000/svg" xmlns:xlink="http://www.w3.org/1999/xlink" 
	 viewBox="0 0 512 512" xml:space="preserve">
<circle style="fill:#FEE187;" cx="256" cy="256" r="256"/>
<path style="fill:#FFC61B;" d="M511.559,241.112l-92.413-92.413L91.81,333.805l177.831,177.833C404.683,504.546,512,392.807,512,256
	C512,251.001,511.841,246.039,511.559,241.112z"/>
<path style="fill:#2B7A40;" d="M109.182,341.333H402.82c13.171,0,23.849-10.676,23.849-23.847V166.071
	c0-13.171-10.676-23.847-23.849-23.847H109.182c-13.171,0-23.847,10.676-23.847,23.847v151.416
	C85.333,330.657,96.009,341.333,109.182,341.333z"/>
<path style="fill:#20602F;" d="M402.82,142.222H256.288v199.111H402.82c13.171,0,23.847-10.676,23.847-23.847V166.071
	C426.667,152.898,415.991,142.222,402.82,142.222z"/>
<g>
	<path style="fill:#FFEDB5;" d="M321.222,341.333h68.668c4.601,0,8.333-3.731,8.333-8.332v-11.779c0-4.601-3.731-8.333-8.333-8.333
		h-68.668c-4.601,0-8.332,3.731-8.332,8.333v11.779C312.889,337.603,316.619,341.333,321.222,341.333z"/>
	<path style="fill:#FFEDB5;" d="M327.799,274.156c-29.125,0.002-53.994-14.374-73.911-25.886
		c-10.314-5.961-20.059-11.592-28.344-14.119c-28.386-8.661-48.742,25.022-48.945,25.364c-1.941,3.277-6.172,4.358-9.447,2.417
		c-3.275-1.941-4.358-6.172-2.417-9.447c1.05-1.774,26.195-43.317,64.833-31.525c9.799,2.989,20.204,9.004,31.222,15.372
		c29.703,17.168,63.376,36.621,105.694,13.612c3.348-1.819,7.535-0.584,9.352,2.763c1.82,3.346,0.583,7.533-2.763,9.352
		C357.036,270.777,341.918,274.156,327.799,274.156z"/>
</g>
<path style="fill:#FEE187;" d="M375.836,252.706c-1.817-3.346-6.003-4.58-9.352-2.763c-42.318,23.011-75.99,3.556-105.694-13.612
	c-1.514-0.874-3.012-1.739-4.501-2.593v15.917c19.504,11.248,43.539,24.504,71.511,24.502c14.117,0,29.237-3.379,45.273-12.1
	C376.418,260.239,377.654,256.052,375.836,252.706z"/>
</svg>